<mxfile host="app.diagrams.net" agent="Mozilla/5.0 (Macintosh; Intel Mac OS X 10_15_7) AppleWebKit/537.36 (KHTML, like Gecko) Chrome/131.0.0.0 Safari/537.36" version="25.0.3">
  <diagram name="Page-1" id="MXHDru3smT2ZfGOdoRUV">
    <mxGraphModel dx="954" dy="605" grid="1" gridSize="10" guides="1" tooltips="1" connect="1" arrows="1" fold="1" page="1" pageScale="1" pageWidth="850" pageHeight="1100" math="0" shadow="0">
      <root>
        <mxCell id="0" />
        <mxCell id="1" parent="0" />
        <mxCell id="33dJ4lHk_ekKckxAp8w7-17" style="edgeStyle=orthogonalEdgeStyle;rounded=0;orthogonalLoop=1;jettySize=auto;html=1;exitX=0.75;exitY=1;exitDx=0;exitDy=0;" edge="1" parent="1" source="33dJ4lHk_ekKckxAp8w7-1" target="33dJ4lHk_ekKckxAp8w7-14">
          <mxGeometry relative="1" as="geometry" />
        </mxCell>
        <mxCell id="33dJ4lHk_ekKckxAp8w7-21" style="edgeStyle=orthogonalEdgeStyle;rounded=0;orthogonalLoop=1;jettySize=auto;html=1;exitX=0.25;exitY=1;exitDx=0;exitDy=0;" edge="1" parent="1" source="33dJ4lHk_ekKckxAp8w7-1" target="33dJ4lHk_ekKckxAp8w7-18">
          <mxGeometry relative="1" as="geometry" />
        </mxCell>
        <mxCell id="33dJ4lHk_ekKckxAp8w7-1" value="Maestro" style="whiteSpace=wrap;html=1;aspect=fixed;" vertex="1" parent="1">
          <mxGeometry x="370" y="330" width="80" height="80" as="geometry" />
        </mxCell>
        <mxCell id="33dJ4lHk_ekKckxAp8w7-5" style="edgeStyle=orthogonalEdgeStyle;rounded=0;orthogonalLoop=1;jettySize=auto;html=1;entryX=0;entryY=0.75;entryDx=0;entryDy=0;" edge="1" parent="1" source="33dJ4lHk_ekKckxAp8w7-2" target="33dJ4lHk_ekKckxAp8w7-1">
          <mxGeometry relative="1" as="geometry" />
        </mxCell>
        <mxCell id="33dJ4lHk_ekKckxAp8w7-2" value="RDS" style="whiteSpace=wrap;html=1;aspect=fixed;" vertex="1" parent="1">
          <mxGeometry x="170" y="80" width="80" height="80" as="geometry" />
        </mxCell>
        <mxCell id="33dJ4lHk_ekKckxAp8w7-3" value="Engine" style="whiteSpace=wrap;html=1;aspect=fixed;" vertex="1" parent="1">
          <mxGeometry x="370" y="80" width="80" height="80" as="geometry" />
        </mxCell>
        <mxCell id="33dJ4lHk_ekKckxAp8w7-4" value="Aggregator" style="whiteSpace=wrap;html=1;aspect=fixed;" vertex="1" parent="1">
          <mxGeometry x="570" y="80" width="80" height="80" as="geometry" />
        </mxCell>
        <mxCell id="33dJ4lHk_ekKckxAp8w7-6" value="Maestro Client" style="rounded=0;whiteSpace=wrap;html=1;" vertex="1" parent="1">
          <mxGeometry x="160" y="160" width="100" height="30" as="geometry" />
        </mxCell>
        <mxCell id="33dJ4lHk_ekKckxAp8w7-23" style="edgeStyle=orthogonalEdgeStyle;rounded=0;orthogonalLoop=1;jettySize=auto;html=1;exitX=0.25;exitY=1;exitDx=0;exitDy=0;" edge="1" parent="1" source="33dJ4lHk_ekKckxAp8w7-7">
          <mxGeometry relative="1" as="geometry">
            <mxPoint x="533.5" y="175" as="sourcePoint" />
            <mxPoint x="150" y="470" as="targetPoint" />
            <Array as="points">
              <mxPoint x="534" y="190" />
              <mxPoint x="534" y="210" />
              <mxPoint x="150" y="210" />
            </Array>
          </mxGeometry>
        </mxCell>
        <mxCell id="33dJ4lHk_ekKckxAp8w7-7" value="Maestro Client" style="rounded=0;whiteSpace=wrap;html=1;" vertex="1" parent="1">
          <mxGeometry x="560" y="160" width="100" height="30" as="geometry" />
        </mxCell>
        <mxCell id="33dJ4lHk_ekKckxAp8w7-9" style="edgeStyle=orthogonalEdgeStyle;rounded=0;orthogonalLoop=1;jettySize=auto;html=1;entryX=0.5;entryY=0;entryDx=0;entryDy=0;" edge="1" parent="1" source="33dJ4lHk_ekKckxAp8w7-8" target="33dJ4lHk_ekKckxAp8w7-1">
          <mxGeometry relative="1" as="geometry" />
        </mxCell>
        <mxCell id="33dJ4lHk_ekKckxAp8w7-22" style="edgeStyle=orthogonalEdgeStyle;rounded=0;orthogonalLoop=1;jettySize=auto;html=1;" edge="1" parent="1" source="33dJ4lHk_ekKckxAp8w7-8" target="33dJ4lHk_ekKckxAp8w7-18">
          <mxGeometry relative="1" as="geometry">
            <Array as="points">
              <mxPoint x="410" y="240" />
              <mxPoint x="190" y="240" />
            </Array>
          </mxGeometry>
        </mxCell>
        <mxCell id="33dJ4lHk_ekKckxAp8w7-8" value="Maestro Client" style="rounded=0;whiteSpace=wrap;html=1;" vertex="1" parent="1">
          <mxGeometry x="360" y="160" width="100" height="30" as="geometry" />
        </mxCell>
        <mxCell id="33dJ4lHk_ekKckxAp8w7-10" style="edgeStyle=orthogonalEdgeStyle;rounded=0;orthogonalLoop=1;jettySize=auto;html=1;entryX=1;entryY=0.863;entryDx=0;entryDy=0;entryPerimeter=0;exitX=0;exitY=0.75;exitDx=0;exitDy=0;" edge="1" parent="1" source="33dJ4lHk_ekKckxAp8w7-4" target="33dJ4lHk_ekKckxAp8w7-1">
          <mxGeometry relative="1" as="geometry">
            <mxPoint x="560" y="140" as="sourcePoint" />
          </mxGeometry>
        </mxCell>
        <mxCell id="33dJ4lHk_ekKckxAp8w7-11" value="Gemfire Cache" style="image;aspect=fixed;html=1;points=[];align=center;fontSize=12;image=img/lib/azure2/databases/Cache_Redis.svg;" vertex="1" parent="1">
          <mxGeometry x="378" y="480" width="64" height="52" as="geometry" />
        </mxCell>
        <mxCell id="33dJ4lHk_ekKckxAp8w7-12" style="edgeStyle=orthogonalEdgeStyle;rounded=0;orthogonalLoop=1;jettySize=auto;html=1;entryX=0.5;entryY=0;entryDx=0;entryDy=0;entryPerimeter=0;" edge="1" parent="1" source="33dJ4lHk_ekKckxAp8w7-1" target="33dJ4lHk_ekKckxAp8w7-11">
          <mxGeometry relative="1" as="geometry" />
        </mxCell>
        <mxCell id="33dJ4lHk_ekKckxAp8w7-14" value="HBase Column family data store&lt;div&gt;&lt;br&gt;&lt;/div&gt;" style="image;aspect=fixed;html=1;points=[];align=center;fontSize=12;image=img/lib/azure2/other/Managed_Instance_Apache_Cassandra.svg;" vertex="1" parent="1">
          <mxGeometry x="570" y="482" width="68" height="68" as="geometry" />
        </mxCell>
        <mxCell id="33dJ4lHk_ekKckxAp8w7-18" value="" style="outlineConnect=0;dashed=0;verticalLabelPosition=bottom;verticalAlign=top;align=center;html=1;shape=mxgraph.aws3.topic_2;fillColor=#D9A741;gradientColor=none;" vertex="1" parent="1">
          <mxGeometry x="130" y="470" width="93" height="58.5" as="geometry" />
        </mxCell>
        <mxCell id="33dJ4lHk_ekKckxAp8w7-19" value="Messaging Queues (TIBCO)" style="text;html=1;align=center;verticalAlign=middle;resizable=0;points=[];autosize=1;strokeColor=none;fillColor=none;" vertex="1" parent="1">
          <mxGeometry x="75" y="528" width="170" height="30" as="geometry" />
        </mxCell>
        <mxCell id="33dJ4lHk_ekKckxAp8w7-20" style="edgeStyle=orthogonalEdgeStyle;rounded=0;orthogonalLoop=1;jettySize=auto;html=1;entryX=0.5;entryY=0;entryDx=0;entryDy=0;entryPerimeter=0;" edge="1" parent="1" source="33dJ4lHk_ekKckxAp8w7-6" target="33dJ4lHk_ekKckxAp8w7-18">
          <mxGeometry relative="1" as="geometry">
            <Array as="points">
              <mxPoint x="177" y="330" />
            </Array>
          </mxGeometry>
        </mxCell>
      </root>
    </mxGraphModel>
  </diagram>
</mxfile>
